<svg xmlns="http://www.w3.org/2000/svg" width="50" height="77" viewBox="0 0 50 77">
    <g fill="#8D8D8D" fill-rule="evenodd">
        <text font-family="SDGothicNeoaTTF-dRg, Sandoll GothicNeo1 TTF" font-size="15">
            <tspan x="2.2" y="74">새 태그</tspan>
        </text>
        <g fill-rule="nonzero">
            <path d="M25 0C11.215 0 0 11.214 0 25s11.215 25 25 25 25-11.214 25-25S38.785 0 25 0zm0 48.077C12.276 48.077 1.923 37.724 1.923 25 1.923 12.276 12.276 1.923 25 1.923c12.724 0 23.077 10.353 23.077 23.077 0 12.724-10.353 23.077-23.077 23.077z"/>
            <path d="M37.02 24.038H25.961V13.462a.961.961 0 1 0-1.924 0v10.576H12.981a.961.961 0 1 0 0 1.924h11.057V37.5a.961.961 0 1 0 1.924 0V25.962h11.057a.961.961 0 1 0 0-1.924z"/>
        </g>
    </g>
</svg>
